<svg width="19" height="19" viewBox="0 0 19 19" fill="none" xmlns="http://www.w3.org/2000/svg">
<path d="M9.16667 18.3333C7.89861 18.3333 6.70694 18.0927 5.59167 17.6115C4.47639 17.1302 3.50625 16.4771 2.68125 15.6521C1.85625 14.8271 1.20312 13.8569 0.721875 12.7417C0.240625 11.6264 0 10.4347 0 9.16667C0 7.89861 0.240625 6.70694 0.721875 5.59167C1.20312 4.47639 1.85625 3.50625 2.68125 2.68125C3.50625 1.85625 4.47639 1.20312 5.59167 0.721875C6.70694 0.240625 7.89861 0 9.16667 0C10.4347 0 11.6264 0.240625 12.7417 0.721875C13.8569 1.20312 14.8271 1.85625 15.6521 2.68125C16.4771 3.50625 17.1302 4.47639 17.6115 5.59167C18.0927 6.70694 18.3333 7.89861 18.3333 9.16667V10.4958C18.3333 11.3972 18.024 12.1649 17.4052 12.799C16.7865 13.433 16.0264 13.75 15.125 13.75C14.5903 13.75 14.0861 13.6354 13.6125 13.4062C13.1389 13.1771 12.7417 12.8486 12.4208 12.4208C11.9778 12.8639 11.4774 13.1962 10.9198 13.4177C10.3622 13.6392 9.77778 13.75 9.16667 13.75C7.89861 13.75 6.81771 13.3031 5.92396 12.4094C5.03021 11.5156 4.58333 10.4347 4.58333 9.16667C4.58333 7.89861 5.03021 6.81771 5.92396 5.92396C6.81771 5.03021 7.89861 4.58333 9.16667 4.58333C10.4347 4.58333 11.5156 5.03021 12.4094 5.92396C13.3031 6.81771 13.75 7.89861 13.75 9.16667V10.4958C13.75 10.8931 13.8799 11.2292 14.1396 11.5042C14.3993 11.7792 14.7278 11.9167 15.125 11.9167C15.5222 11.9167 15.8507 11.7792 16.1104 11.5042C16.3701 11.2292 16.5 10.8931 16.5 10.4958V9.16667C16.5 7.11944 15.7896 5.38542 14.3687 3.96458C12.9479 2.54375 11.2139 1.83333 9.16667 1.83333C7.11944 1.83333 5.38542 2.54375 3.96458 3.96458C2.54375 5.38542 1.83333 7.11944 1.83333 9.16667C1.83333 11.2139 2.54375 12.9479 3.96458 14.3687C5.38542 15.7896 7.11944 16.5 9.16667 16.5H13.75V18.3333H9.16667ZM9.16667 11.9167C9.93056 11.9167 10.5799 11.6493 11.1146 11.1146C11.6493 10.5799 11.9167 9.93056 11.9167 9.16667C11.9167 8.40278 11.6493 7.75347 11.1146 7.21875C10.5799 6.68403 9.93056 6.41667 9.16667 6.41667C8.40278 6.41667 7.75347 6.68403 7.21875 7.21875C6.68403 7.75347 6.41667 8.40278 6.41667 9.16667C6.41667 9.93056 6.68403 10.5799 7.21875 11.1146C7.75347 11.6493 8.40278 11.9167 9.16667 11.9167Z" fill="#7C6F5D"/>
</svg>
