<svg width="20" height="23" viewBox="0 0 20 23" fill="none" xmlns="http://www.w3.org/2000/svg">
<path d="M18 2.01562H16.9688V1.03125C16.9688 0.46875 16.5469 0 15.9844 0C15.4219 0 15 0.46875 15 1.03125V2.01562H4.96875V1.03125C4.96875 0.46875 4.54688 0 3.98438 0C3.42188 0 3 0.46875 3 1.03125V2.01562H1.96875C0.890625 2.01562 0 2.90625 0 4.03125V20.0156C0 21.0938 0.890625 22.0312 1.96875 22.0312H18C19.0781 22.0312 19.9688 21.0938 19.9688 20.0156V4.03125C19.9688 2.90625 19.0781 2.01562 18 2.01562ZM16.9688 20.0156H3C2.4375 20.0156 1.96875 19.5469 1.96875 19.0312V7.03125H18V19.0312C18 19.5469 17.5312 20.0156 16.9688 20.0156Z" fill="#6B7280"/>
</svg>
