<svg width="23" height="25" viewBox="0 0 23 25" fill="none" xmlns="http://www.w3.org/2000/svg">
<path d="M3.75 25C2.70833 25 1.82292 24.6354 1.09375 23.9062C0.364583 23.1771 0 22.2917 0 21.25V17.5H3.75V0L5.625 1.875L7.5 0L9.375 1.875L11.25 0L13.125 1.875L15 0L16.875 1.875L18.75 0L20.625 1.875L22.5 0V21.25C22.5 22.2917 22.1354 23.1771 21.4062 23.9062C20.6771 24.6354 19.7917 25 18.75 25H3.75V25M18.75 22.5C19.1042 22.5 19.401 22.3802 19.6406 22.1406C19.8802 21.901 20 21.6042 20 21.25V3.75H6.25V17.5H17.5V21.25C17.5 21.6042 17.6198 21.901 17.8594 22.1406C18.099 22.3802 18.3958 22.5 18.75 22.5V22.5M7.5 8.75V6.25H15V8.75H7.5V8.75M7.5 12.5V10H15V12.5H7.5V12.5M17.5 8.75C17.1458 8.75 16.849 8.63021 16.6094 8.39062C16.3698 8.15104 16.25 7.85417 16.25 7.5C16.25 7.14583 16.3698 6.84896 16.6094 6.60938C16.849 6.36979 17.1458 6.25 17.5 6.25C17.8542 6.25 18.151 6.36979 18.3906 6.60938C18.6302 6.84896 18.75 7.14583 18.75 7.5C18.75 7.85417 18.6302 8.15104 18.3906 8.39062C18.151 8.63021 17.8542 8.75 17.5 8.75V8.75M17.5 12.5C17.1458 12.5 16.849 12.3802 16.6094 12.1406C16.3698 11.901 16.25 11.6042 16.25 11.25C16.25 10.8958 16.3698 10.599 16.6094 10.3594C16.849 10.1198 17.1458 10 17.5 10C17.8542 10 18.151 10.1198 18.3906 10.3594C18.6302 10.599 18.75 10.8958 18.75 11.25C18.75 11.6042 18.6302 11.901 18.3906 12.1406C18.151 12.3802 17.8542 12.5 17.5 12.5V12.5M3.75 22.5H15V20H2.5V21.25C2.5 21.6042 2.61979 21.901 2.85938 22.1406C3.09896 22.3802 3.39583 22.5 3.75 22.5V22.5M2.5 22.5C2.5 22.5 2.5 22.3802 2.5 22.1406C2.5 21.901 2.5 21.6042 2.5 21.25V20V20V22.5V22.5V22.5" fill="#135BEC"/>
</svg>
