<svg width="12" height="12" viewBox="0 0 12 12" fill="none" xmlns="http://www.w3.org/2000/svg">
<path d="M11.7188 9.89062L7.82812 6L11.7188 2.10938C12.0938 1.73438 12.0938 1.07812 11.7188 0.703125C11.2969 0.328125 10.6875 0.328125 10.3125 0.703125L5.71875 5.29688C5.29688 5.67188 5.29688 6.32812 5.71875 6.70312L10.3125 11.2969C10.6875 11.6719 11.2969 11.6719 11.7188 11.2969C12.0938 10.9219 12.0938 10.2656 11.7188 9.89062ZM0.984375 0C1.54688 0 2.01562 0.46875 2.01562 0.984375V11.0156C2.01562 11.5312 1.54688 12 0.984375 12C0.46875 12 0 11.5312 0 11.0156V0.984375C0 0.46875 0.46875 0 0.984375 0Z" fill="#3B82F6"/>
</svg>
