<svg width="12" height="12" viewBox="0 0 12 12" fill="none" xmlns="http://www.w3.org/2000/svg">
<path d="M0.28125 2.10938L4.17188 6L0.28125 9.89062C-0.09375 10.2656 -0.09375 10.9219 0.28125 11.2969C0.703125 11.6719 1.3125 11.6719 1.6875 11.2969L6.28125 6.70312C6.70312 6.32812 6.70312 5.67188 6.28125 5.29688L1.6875 0.703125C1.3125 0.328125 0.703125 0.328125 0.28125 0.703125C-0.09375 1.07812 -0.09375 1.73438 0.28125 2.10938ZM11.0156 0C11.5312 0 12 0.46875 12 0.984375V11.0156C12 11.5312 11.5312 12 11.0156 12C10.4531 12 9.98438 11.5312 9.98438 11.0156V0.984375C9.98438 0.46875 10.4531 0 11.0156 0Z" fill="#3B82F6"/>
</svg>
