<svg width="19" height="14" viewBox="0 0 19 14" fill="none" xmlns="http://www.w3.org/2000/svg">
<path d="M18.3594 3.35938V11.6797C18.3594 12.5781 17.5781 13.3594 16.6797 13.3594H3.35938C2.89062 13.3594 2.5 12.9688 2.5 12.5C2.5 12.0703 2.89062 11.6797 3.35938 11.6797H16.6797V3.35938C16.6797 2.89062 17.0703 2.5 17.5 2.5C17.9688 2.5 18.3594 2.89062 18.3594 3.35938ZM2.5 10C1.13281 10 0 8.90625 0 7.5V2.5C0 1.13281 1.13281 0 2.5 0H12.5C13.9062 0 15 1.13281 15 2.5V8.35938C15 9.25781 14.2578 10 13.3594 10H2.5ZM5 5C5 6.40625 6.13281 7.5 7.5 7.5C8.90625 7.5 10 6.40625 10 5C10 3.63281 8.90625 2.5 7.5 2.5C6.13281 2.5 5 3.63281 5 5Z" fill="#10B981"/>
</svg>
