<svg width="12" height="11" viewBox="0 0 12 11" fill="none" xmlns="http://www.w3.org/2000/svg">
<path d="M9.32422 0V2.32422H2.32422V0H9.32422V0M9.48828 5.08594C9.59766 5.19531 9.73438 5.25 9.89844 5.25C10.0625 5.25 10.2038 5.19531 10.3223 5.08594C10.4408 4.97656 10.5 4.83984 10.5 4.67578C10.5 4.51172 10.4408 4.37044 10.3223 4.25195C10.2038 4.13346 10.0625 4.07422 9.89844 4.07422C9.73438 4.07422 9.59766 4.13346 9.48828 4.25195C9.37891 4.37044 9.32422 4.51172 9.32422 4.67578C9.32422 4.83984 9.37891 4.97656 9.48828 5.08594V5.08594M8.14844 9.32422V6.42578H3.5V9.32422H8.14844V9.32422M9.89844 2.92578C10.3724 2.92578 10.7826 3.09896 11.1289 3.44531C11.4753 3.79167 11.6484 4.20182 11.6484 4.67578V8.17578H9.32422V10.5H2.32422V8.17578H0V4.67578C0 4.20182 0.173177 3.79167 0.519531 3.44531C0.865885 3.09896 1.27604 2.92578 1.75 2.92578H9.89844V2.92578" fill="#374151"/>
</svg>
