<svg width="18" height="20" viewBox="0 0 18 20" fill="none" xmlns="http://www.w3.org/2000/svg">
<path d="M16.5 1.5L15 0L13.5 1.5L12 0L10.5 1.5L9 0L7.5 1.5L6 0L4.5 1.5L3 0V13.9688H0V16.9688C0 17.5312 0.132812 18.0391 0.398438 18.4922C0.664062 18.9453 1.02344 19.3047 1.47656 19.5703C1.92969 19.8359 2.4375 19.9688 3 19.9688H15C15.5625 19.9688 16.0703 19.8359 16.5234 19.5703C16.9766 19.3047 17.3359 18.9453 17.6016 18.4922C17.8672 18.0391 18 17.5312 18 16.9688V0L16.5 1.5V1.5M15.9844 16.9688C15.9844 17.25 15.8906 17.4922 15.7031 17.6953C15.5156 17.8984 15.2812 18 15 18C14.7188 18 14.4844 17.8984 14.2969 17.6953C14.1094 17.4922 14.0156 17.25 14.0156 16.9688V13.9688H5.01562V3H15.9844V16.9688V16.9688M6 4.96875H12V6.98438H6V4.96875V4.96875M12.9844 4.96875H15V6.98438H12.9844V4.96875V4.96875M6 7.96875H12V9.98438H6V7.96875V7.96875M12.9844 7.96875H15V9.98438H12.9844V7.96875V7.96875" fill="#3B82F6"/>
</svg>
