<svg width="16" height="17" viewBox="0 0 16 17" fill="none" xmlns="http://www.w3.org/2000/svg">
<path d="M13.6497 2.33256C12.0091 0.738815 9.66536 -0.198685 7.13411 0.0356897C3.47786 0.41069 0.477862 3.41069 0.0559871 7.06694C-0.506513 11.8951 3.24349 16.0201 7.97786 16.0201C11.1654 16.0201 13.931 14.1451 15.1966 11.4263C15.5247 10.7701 15.0091 10.0201 14.306 10.0201C13.931 10.0201 13.556 10.2076 13.4154 10.5357C12.2904 12.9732 9.57161 14.5201 6.61849 13.8638C4.36849 13.3482 2.58724 11.5669 2.11849 9.31694C1.27474 5.42631 4.22786 2.00444 7.97786 2.00444C9.61849 2.00444 11.1185 2.70756 12.1966 3.78569L10.6966 5.28569C10.0404 5.94194 10.5091 7.02006 11.3997 7.02006H14.9622C15.5247 7.02006 15.9935 6.55131 15.9935 5.98881V2.42631C15.9935 1.53569 14.9154 1.06694 14.2591 1.72319L13.6497 2.33256V2.33256" fill="black"/>
</svg>
