<svg width="20" height="20" viewBox="0 0 20 20" fill="none" xmlns="http://www.w3.org/2000/svg">
<path d="M12 9.98438H15.9844V11.4844H12V9.98438V9.98438M12 12.9844H15.9844V14.4844H12V12.9844V12.9844M18 4.96875H12.9844V1.96875C12.9844 0.890625 12.0938 0 10.9688 0H9C7.875 0 6.98438 0.890625 6.98438 1.96875V4.96875H1.96875C0.890625 4.96875 0 5.90625 0 6.98438V18C0 19.0781 0.890625 19.9688 1.96875 19.9688H18C19.0781 19.9688 19.9688 19.0781 19.9688 18V6.98438C19.9688 5.90625 19.0781 4.96875 18 4.96875V4.96875M9 4.96875V1.96875H10.9688V6.98438H9V4.96875V4.96875M18 18H1.96875V6.98438H6.98438C6.98438 8.0625 7.875 9 9 9H10.9688C12.0938 9 12.9844 8.0625 12.9844 6.98438H18V18V18M5.48438 11.4844C5.48438 10.6406 6.14062 9.98438 6.98438 9.98438C7.82812 9.98438 8.48438 10.6406 8.48438 11.4844C8.48438 12.3281 7.82812 12.9844 6.98438 12.9844C6.14062 12.9844 5.48438 12.3281 5.48438 11.4844V11.4844M9.04688 14.1562C8.4375 13.875 7.73438 13.7344 6.98438 13.7344C6.23438 13.7344 5.53125 13.875 4.92188 14.1562C4.35938 14.3906 3.98438 14.9531 3.98438 15.5625V15.9844H9.98438V15.5625C9.98438 14.9531 9.60938 14.3906 9.04688 14.1562V14.1562" fill="#9CA3AF"/>
</svg>
