<svg width="17" height="17" viewBox="0 0 17 17" fill="none" xmlns="http://www.w3.org/2000/svg">
<path d="M6.05794 10.3906C6.63086 10.9635 7.32096 11.25 8.12825 11.25C8.93555 11.25 9.62565 10.9635 10.1986 10.3906C10.7715 9.81771 11.0579 9.1276 11.0579 8.32031C11.0579 7.51302 10.7715 6.82292 10.1986 6.25C9.62565 5.67708 8.93555 5.39062 8.12825 5.39062C7.32096 5.39062 6.63086 5.67708 6.05794 6.25C5.48503 6.82292 5.19857 7.51302 5.19857 8.32031C5.19857 9.1276 5.48503 9.81771 6.05794 10.3906V10.3906M14.3392 9.14062L16.097 10.5078C16.2793 10.638 16.3053 10.8203 16.1751 11.0547L14.4954 13.9453C14.3913 14.1276 14.222 14.1797 13.9876 14.1016L11.9173 13.2812C11.3704 13.6719 10.9017 13.9453 10.5111 14.1016L10.1986 16.2891C10.1465 16.5234 10.0163 16.6406 9.80794 16.6406H6.44857C6.24023 16.6406 6.11003 16.5234 6.05794 16.2891L5.74544 14.1016C5.25065 13.8932 4.7819 13.6198 4.33919 13.2812L2.26888 14.1016C2.03451 14.1797 1.86523 14.1276 1.76107 13.9453L0.0813802 11.0547C-0.0488281 10.8203 -0.0227865 10.638 0.159505 10.5078L1.91732 9.14062C1.89128 8.95833 1.87826 8.6849 1.87826 8.32031C1.87826 7.95573 1.89128 7.68229 1.91732 7.5L0.159505 6.13281C-0.0227865 6.0026 -0.0488281 5.82031 0.0813802 5.58594L1.76107 2.69531C1.86523 2.51302 2.03451 2.46094 2.26888 2.53906L4.33919 3.35938C4.88607 2.96875 5.35482 2.69531 5.74544 2.53906L6.05794 0.351562C6.11003 0.117188 6.24023 0 6.44857 0H9.80794C10.0163 0 10.1465 0.117188 10.1986 0.351562L10.5111 2.53906C11.0059 2.7474 11.4746 3.02083 11.9173 3.35938L13.9876 2.53906C14.222 2.46094 14.3913 2.51302 14.4954 2.69531L16.1751 5.58594C16.3053 5.82031 16.2793 6.0026 16.097 6.13281L14.3392 7.5C14.3652 7.68229 14.3783 7.95573 14.3783 8.32031C14.3783 8.6849 14.3652 8.95833 14.3392 9.14062V9.14062" fill="#6B7280"/>
</svg>
