<svg width="20" height="14" viewBox="0 0 20 14" fill="none" xmlns="http://www.w3.org/2000/svg">
<path d="M6.98438 8.71875C4.64062 8.71875 0 9.89062 0 12.2344V13.9688H13.9688V12.2344C13.9688 9.89062 9.32812 8.71875 6.98438 8.71875V8.71875M2.34375 12C3.1875 11.3906 5.20312 10.7344 6.98438 10.7344C8.76562 10.7344 10.7812 11.3906 11.625 12H2.34375V12M6.98438 6.98438C8.90625 6.98438 10.5 5.4375 10.5 3.46875C10.5 1.54688 8.90625 0 6.98438 0C5.0625 0 3.46875 1.54688 3.46875 3.46875C3.46875 5.4375 5.0625 6.98438 6.98438 6.98438V6.98438M6.98438 1.96875C7.82812 1.96875 8.48438 2.67188 8.48438 3.46875C8.48438 4.3125 7.82812 4.96875 6.98438 4.96875C6.14062 4.96875 5.48438 4.3125 5.48438 3.46875C5.48438 2.67188 6.14062 1.96875 6.98438 1.96875V1.96875M14.0156 8.8125C15.1875 9.65625 15.9844 10.7344 15.9844 12.2344V13.9688H19.9688V12.2344C19.9688 10.2188 16.5 9.04688 14.0156 8.8125V8.8125M12.9844 6.98438C14.9062 6.98438 16.5 5.4375 16.5 3.46875C16.5 1.54688 14.9062 0 12.9844 0C12.4219 0 11.9531 0.09375 11.4844 0.328125C12.0938 1.21875 12.4688 2.29688 12.4688 3.46875C12.4688 4.64062 12.0938 5.76562 11.4844 6.65625C11.9531 6.84375 12.4219 6.98438 12.9844 6.98438V6.98438" fill="#9CA3AF"/>
</svg>
