<svg width="20" height="18" viewBox="0 0 20 18" fill="none" xmlns="http://www.w3.org/2000/svg">
<path d="M9.98438 3.98438V0H0V18H19.9688V3.98438H9.98438V3.98438M3.98438 15.9844H1.96875V14.0156H3.98438V15.9844V15.9844M3.98438 12H1.96875V9.98438H3.98438V12V12M3.98438 8.01562H1.96875V6H3.98438V8.01562V8.01562M3.98438 3.98438H1.96875V2.01562H3.98438V3.98438V3.98438M7.96875 15.9844H6V14.0156H7.96875V15.9844V15.9844M7.96875 12H6V9.98438H7.96875V12V12M7.96875 8.01562H6V6H7.96875V8.01562V8.01562M7.96875 3.98438H6V2.01562H7.96875V3.98438V3.98438M18 15.9844H9.98438V14.0156H12V12H9.98438V9.98438H12V8.01562H9.98438V6H18V15.9844V15.9844M15.9844 8.01562H13.9688V9.98438H15.9844V8.01562V8.01562M15.9844 12H13.9688V14.0156H15.9844V12V12" fill="#3B82F6"/>
</svg>
