<svg width="18" height="18" viewBox="0 0 18 18" fill="none" xmlns="http://www.w3.org/2000/svg">
<path d="M15.9844 3.98438H6C4.92188 3.98438 3.98438 4.92188 3.98438 6V15.9844C3.98438 17.1094 4.92188 18 6 18H15.9844C17.1094 18 18 17.1094 18 15.9844V6C18 4.92188 17.1094 3.98438 15.9844 3.98438ZM15.9844 6.98438C15.9844 7.54688 15.5625 8.01562 15 8.01562H6.98438C6.46875 8.01562 6 7.54688 6 6.98438C6 6.46875 6.46875 6 6.98438 6H15C15.5625 6 15.9844 6.46875 15.9844 6.98438ZM9.98438 12V9.98438H12V12H9.98438ZM12 14.0156V15.9844H9.98438V14.0156H12ZM8.01562 12H6V9.98438H8.01562V12ZM14.0156 9.98438H15.9844V12H14.0156V9.98438ZM6 14.0156H8.01562V15.9844H6V14.0156ZM14.0156 15.9844V14.0156H15.9844V15.9844H14.0156ZM3 14.0156H2.01562C0.890625 14.0156 0 13.0781 0 12V2.01562C0 0.890625 0.890625 0 2.01562 0H12C13.0781 0 14.0156 0.890625 14.0156 2.01562V3H12V2.01562H2.01562V12H3V14.0156Z" fill="#3B82F6"/>
</svg>
