<svg width="17" height="17" viewBox="0 0 17 17" fill="none" xmlns="http://www.w3.org/2000/svg">
<path d="M16.0312 5.01562C16.0312 4.45312 15.5625 4.03125 15 4.03125H12V1.03125C12 0.46875 11.5781 0 11.0156 0C10.4531 0 10.0312 0.46875 10.0312 1.03125V4.03125H6V1.03125C6 0.46875 5.57812 0 5.01562 0C4.45312 0 4.03125 0.46875 4.03125 1.03125V4.03125H1.03125C0.46875 4.03125 0 4.45312 0 5.01562C0 5.57812 0.46875 6 1.03125 6H4.03125V10.0312H1.03125C0.46875 10.0312 0 10.4531 0 11.0156C0 11.5781 0.46875 12 1.03125 12H4.03125V15C4.03125 15.5625 4.45312 16.0312 5.01562 16.0312C5.57812 16.0312 6 15.5625 6 15V12H10.0312V15C10.0312 15.5625 10.4531 16.0312 11.0156 16.0312C11.5781 16.0312 12 15.5625 12 15V12H15C15.5625 12 16.0312 11.5781 16.0312 11.0156C16.0312 10.4531 15.5625 10.0312 15 10.0312H12V6H15C15.5625 6 16.0312 5.57812 16.0312 5.01562ZM10.0312 10.0312H6V6H10.0312V10.0312Z" fill="#6B7280"/>
</svg>
